<svg width="56" height="56" viewBox="0 0 56 56" fill="none" xmlns="http://www.w3.org/2000/svg">
<path fill-rule="evenodd" clip-rule="evenodd" d="M23.7303 7.31885C21.4979 4.43438 17.2242 3.81605 14.1808 5.89176C11.9273 7.42879 10.9412 10.0374 11.4758 12.4779C4.21516 19.3367 2.3953 30.197 7.79804 38.9817C13.135 47.6595 23.8436 51.5901 33.671 49.2827C36.0012 51.6416 39.8745 52.031 42.6935 50.1083C45.7655 48.0131 46.4751 43.9292 44.2191 41.0142C41.9867 38.1297 37.7129 37.5114 34.6696 39.5871C33.0559 40.6878 32.0905 42.339 31.8707 44.0872C24.5116 45.6278 16.6435 42.6076 12.715 36.22C8.81077 29.8718 9.93724 22.0544 14.9585 16.8752C17.1954 18.0011 20.012 17.9085 22.2047 16.4129C25.2767 14.3177 25.9864 10.2339 23.7303 7.31885ZM17.6884 10.5777C18.0766 10.313 18.6212 10.4099 18.8779 10.7416C19.1109 11.0427 19.0565 11.4818 18.6968 11.7271C18.3091 11.9916 17.7645 11.8948 17.5077 11.563C17.2746 11.2618 17.3292 10.8228 17.6884 10.5777ZM38.177 44.273C38.5653 44.0082 39.1098 44.1052 39.3665 44.4369C39.5996 44.738 39.5451 45.1771 39.1854 45.4224C38.7977 45.6869 38.2531 45.5901 37.9963 45.2583C37.7632 44.9571 37.8178 44.518 38.177 44.273Z" fill="#4255FF"/>
<path d="M30.0761 5.98897C28.5998 5.88052 27.2486 6.91869 27.126 8.38871C27.0031 9.86387 28.1731 11.0934 29.653 11.2021C30.6058 11.2721 31.5517 11.4137 32.4809 11.6251C33.9206 11.9527 35.42 11.1306 35.7877 9.70655C36.1592 8.26804 35.2097 6.86991 33.7591 6.53983C32.549 6.2645 31.3172 6.08015 30.0761 5.98897Z" fill="#51CFFF"/>
<path d="M42.7682 10.6688C41.5915 9.79057 39.8814 9.96626 38.9337 11.0852C37.9674 12.2262 38.1789 13.8889 39.3771 14.7831C40.1206 15.3381 40.8154 15.9489 41.4552 16.6114C42.4741 17.6664 44.1919 17.7421 45.3095 16.7909C46.4483 15.8216 46.5396 14.1487 45.5007 13.0729C44.6585 12.2009 43.7447 11.3977 42.7682 10.6688Z" fill="#51CFFF"/>
<path d="M50.4922 21.2932C50.0326 19.8976 48.4859 19.1636 47.0692 19.5748C45.6391 19.9898 44.7841 21.4445 45.2495 22.8575C45.53 23.7095 45.7353 24.579 45.8648 25.4588C46.0794 26.9165 47.49 27.8767 48.9566 27.6865C50.4296 27.4954 51.5218 26.1998 51.306 24.7333C51.1348 23.5696 50.8632 22.4195 50.4922 21.2932Z" fill="#51CFFF"/>
<path d="M48.6789 30.817C47.2596 30.4142 45.7174 31.1573 45.267 32.556C44.9919 33.4103 44.6446 34.2431 44.2283 35.0454C43.5412 36.3696 44.1444 37.9391 45.5014 38.5596C46.8401 39.1717 48.479 38.6632 49.1547 37.361C49.7018 36.3064 50.1585 35.2118 50.5202 34.0885C50.9761 32.6726 50.1112 31.2234 48.6789 30.817Z" fill="#51CFFF"/>
</svg>
