<svg width="56" height="56" viewBox="0 0 56 56" fill="none" xmlns="http://www.w3.org/2000/svg">
<path fill-rule="evenodd" clip-rule="evenodd" d="M38.4929 24.2842C39.5056 24.2842 40.3266 25.1052 40.3266 26.1179V28.3048C40.3266 29.3176 39.5056 30.1385 38.4929 30.1385C37.4802 30.1385 36.6592 29.3176 36.6592 28.3048V26.1179C36.6592 25.1052 37.4802 24.2842 38.4929 24.2842Z" fill="#51CFFF"/>
<path fill-rule="evenodd" clip-rule="evenodd" d="M33.5695 22.2607C34.2837 22.9787 34.2806 24.1398 33.5626 24.854L32.0076 26.4007C31.2896 27.1149 30.1286 27.1118 29.4144 26.3938C28.7002 25.6758 28.7033 24.5148 29.4213 23.8006L30.9762 22.2539C31.6942 21.5397 32.8553 21.5427 33.5695 22.2607Z" fill="#51CFFF"/>
<path fill-rule="evenodd" clip-rule="evenodd" d="M25.6593 17.3637C25.6593 16.351 26.4803 15.53 27.493 15.53H29.6928C30.7055 15.53 31.5265 16.351 31.5265 17.3637C31.5265 18.3764 30.7055 19.1974 29.6928 19.1974H27.493C26.4803 19.1974 25.6593 18.3764 25.6593 17.3637Z" fill="#51CFFF"/>
<path fill-rule="evenodd" clip-rule="evenodd" d="M29.4144 8.33276C30.1286 7.61476 31.2896 7.61168 32.0076 8.32588L33.5626 9.87263C34.2806 10.5868 34.2837 11.7479 33.5695 12.4659C32.8553 13.1839 31.6942 13.1869 30.9762 12.4727L29.4213 10.926C28.7033 10.2118 28.7002 9.05076 29.4144 8.33276Z" fill="#51CFFF"/>
<path fill-rule="evenodd" clip-rule="evenodd" d="M38.4929 4.58813C39.5056 4.58813 40.3266 5.40911 40.3266 6.42183V8.61C40.3266 9.62272 39.5056 10.4437 38.4929 10.4437C37.4802 10.4437 36.6592 9.62272 36.6592 8.61V6.42183C36.6592 5.40911 37.4802 4.58813 38.4929 4.58813Z" fill="#51CFFF"/>
<path fill-rule="evenodd" clip-rule="evenodd" d="M47.5703 8.33276C48.2845 9.05075 48.2814 10.2118 47.5634 10.926L46.0085 12.4727C45.2905 13.1869 44.1294 13.1839 43.4152 12.4659C42.701 11.7479 42.7041 10.5868 43.4221 9.87263L44.9771 8.32588C45.6951 7.61168 46.8561 7.61476 47.5703 8.33276Z" fill="#51CFFF"/>
<path fill-rule="evenodd" clip-rule="evenodd" d="M45.4597 17.3637C45.4597 16.351 46.2807 15.53 47.2934 15.53H49.492C50.5047 15.53 51.3257 16.351 51.3257 17.3637C51.3257 18.3764 50.5047 19.1974 49.492 19.1974H47.2934C46.2807 19.1974 45.4597 18.3764 45.4597 17.3637Z" fill="#51CFFF"/>
<path fill-rule="evenodd" clip-rule="evenodd" d="M43.4152 22.2607C44.1294 21.5427 45.2905 21.5397 46.0085 22.2539L47.5634 23.8006C48.2814 24.5148 48.2845 25.6758 47.5703 26.3938C46.8561 27.1118 45.6951 27.1149 44.9771 26.4007L43.4221 24.854C42.7041 24.1398 42.701 22.9787 43.4152 22.2607Z" fill="#51CFFF"/>
<path d="M28.0004 41.2352C35.5218 41.2352 41.6192 35.1379 41.6192 27.6165C41.6192 20.0951 35.5218 13.9978 28.0004 13.9978C20.479 13.9978 14.3817 20.0951 14.3817 27.6165C14.3817 35.1379 20.479 41.2352 28.0004 41.2352Z" fill="#FFCD1F"/>
<path d="M35.566 38.2078H20.4353V43.2519H35.566V38.2078Z" fill="#FFCD1F"/>
<path d="M20.4333 40.5081C20.4333 40.4329 20.4631 40.3608 20.5163 40.3076C20.5695 40.2545 20.6416 40.2246 20.7168 40.2246H35.2823C35.3575 40.2246 35.4296 40.2545 35.4828 40.3076C35.536 40.3608 35.5658 40.4329 35.5658 40.5081V49.0637C35.5658 49.6652 35.3269 50.2421 34.9016 50.6674C34.4763 51.0927 33.8994 51.3316 33.2979 51.3316H22.6955C22.094 51.3316 21.5172 51.0927 21.0919 50.6674C20.6666 50.2421 20.4276 49.6652 20.4276 49.0637L20.4333 40.5081Z" fill="#FF725B"/>
<path d="M26.7794 31.481H29.2177V40.2244H26.7794V31.481Z" fill="#FF725B"/>
<path d="M27.9989 33.959C29.6397 33.959 30.9698 32.6288 30.9698 30.988C30.9698 29.3472 29.6397 28.0171 27.9989 28.0171C26.3581 28.0171 25.028 29.3472 25.028 30.988C25.028 32.6288 26.3581 33.959 27.9989 33.959Z" fill="#FF725B"/>
</svg>
